<svg xmlns="http://www.w3.org/2000/svg" viewBox="0 0 64 64" role="img" aria-label="Earth">
  <circle cx="32" cy="32" r="27" fill="#2f9df4"/>
  <path
    fill="#35c46f"
    d="M17.8 17.2c3.2-3.2 7.5-5.5 12.3-6.1l2.9 3.1-2.1 4.2 4.1 3.5-1.6 5.3-7.1 1.1-4.7-4.2-5.9 1.6-3.3-2.4a23.4 23.4 0 0 1 5.4-6.1Zm24.5-2.1c5.8 2.8 10.1 7.9 11.8 14l-4.4 1.8-4.8-3.8-6.2.6-2.8-5.4 2.7-5.9 3.7-1.3ZM12.7 34.8l5.6-2.3 5.8 2.4 1.9 5.2-3.7 4.8 1.4 6.1c-5.9-2.2-10.4-7.4-11.7-13.8l.7-2.4Zm22.5 4.7 6.5-3 6.8 2.3 2.3 5.6a23.7 23.7 0 0 1-16.6 10.1l-3.7-4 1.3-6.4 3.4-4.6Z"
  />
  <circle cx="32" cy="32" r="27" fill="none" stroke="#dff7ff" stroke-width="3"/>
</svg>
